<svg width="126" height="40" viewBox="0 0 126 40" fill="none" xmlns="http://www.w3.org/2000/svg">
<g id="forme-logo 2" clip-path="url(#clip0_774_68)">
<g id="Group">
<g id="Group_2">
<path id="Vector" d="M34.3091 5.70117C24.873 5.70117 17.2305 13.3456 17.2305 22.7849C17.2305 32.2225 24.873 39.8653 34.3091 39.8653C43.7521 39.8653 51.4015 32.2225 51.4015 22.7849C51.4015 13.3456 43.7521 5.70117 34.3091 5.70117ZM34.3091 33.7319C28.2635 33.7319 23.365 28.8345 23.365 22.7849C23.365 16.7319 28.2635 11.8362 34.3091 11.8362C40.3531 11.8362 45.2669 16.7319 45.2669 22.7849C45.2669 28.8362 40.3514 33.7319 34.3091 33.7319Z" fill="url(#paint0_linear_774_68)"/>
<path id="Vector_2" d="M39.8825 22.7866C39.8825 25.8635 37.3914 28.3559 34.307 28.3559C31.1696 28.3559 28.6426 25.7627 28.7452 22.602C28.841 19.6738 31.2483 17.2841 34.1788 17.2191C37.323 17.1456 39.8825 19.667 39.8825 22.7866Z" fill="#606060"/>
</g>
</g>
<path id="Vector_3" d="M63.0318 13.4803L63.5447 11.0581H56.8818L51.9766 34.1897H58.6395L61.4178 21.1299C61.8623 18.7367 66.2153 12.8786 69.6058 12.8786C69.6588 12.8786 70.4094 12.8786 70.4606 12.8786L70.8864 11.082C65.8495 11.0837 63.3498 13.1931 63.0318 13.4803Z" fill="#606060"/>
<path id="Vector_4" d="M119.742 10.6428C116.406 10.6428 113.854 11.5762 111.971 13.4411C110.089 15.3078 108.731 17.5197 107.899 20.0804C107.429 21.5266 107.09 22.9027 106.887 24.2121C106.447 26.6992 106.415 29.1608 107.235 31.0821C106.427 31.2428 105.546 31.3556 104.664 31.3556C101.079 31.3556 102.173 26.7984 102.375 25.8873C102.575 24.9779 102.799 24.0445 103.046 23.0873C103.447 21.5146 103.756 20.1813 103.971 19.0856C104.187 17.9915 104.295 16.9967 104.295 16.1009C104.295 14.3437 103.831 13.0326 102.906 12.1676C101.981 11.3044 100.731 10.8719 99.1585 10.8719C96.5665 10.8719 92.7128 12.183 91.0167 14.8052C90.5534 12.1522 88.965 10.8257 86.2499 10.8257C84.0597 10.8257 80.4675 11.7044 78.8946 13.4633L79.4041 11.0582H72.7412L67.8359 34.1898H74.4988L77.8157 18.6548C78.1868 17.3591 79.7443 15.036 83.1023 15.036C84.0273 15.036 84.4906 15.7146 84.4906 17.0719C84.4906 17.4736 84.4444 17.8582 84.3521 18.2291L80.9736 34.1898H87.6365L90.9534 18.6548C91.3244 17.3898 92.5845 15.0821 96.1015 15.0821C97.2128 15.0821 97.7668 15.8685 97.7668 17.4411C97.7668 18.089 97.6591 18.9368 97.4437 19.9864C97.2282 21.036 96.9957 22.0992 96.7495 23.1779C96.6879 23.3933 96.5717 23.8873 96.4024 24.6582C96.2331 25.4291 96.0707 26.224 95.9168 27.0411C95.7613 27.8582 95.686 28.5915 95.686 29.2394C95.686 30.7197 96.1254 31.9625 97.0042 32.9642C97.883 33.9676 99.2628 34.4685 101.145 34.4685C103.722 34.4685 106.317 33.624 108.311 32.7539C109.933 34.4924 112.866 35.3061 117.779 34.4274C121.023 33.848 122.391 32.7864 122.391 32.7864L121.778 31.2548C121.778 31.2548 121.619 31.3471 119.351 31.8326C113.898 33.0018 112.414 29.6531 113.589 24.8445C115.44 24.7215 117.316 24.2206 119.197 23.3403C121.077 22.4616 122.584 21.2975 123.721 19.8479C124.856 18.3984 125.424 16.8103 125.424 15.0821C125.424 12.1232 123.644 10.6428 119.742 10.6428ZM120.236 18.6223C119.508 19.7796 118.55 20.7266 117.362 21.4668C116.174 22.2069 115.087 22.5932 113.915 22.624C114.44 20.1881 115.075 17.9898 116.299 16.0309C117.523 14.0719 118.927 13.0924 120.168 13.0924C121.054 13.0924 121.327 13.7249 121.327 14.9898C121.327 16.2565 120.963 17.4668 120.236 18.6223Z" fill="#606060"/>
<path id="Vector_5" d="M21.5516 0.133789C10.5853 0.133789 7.02728 4.76968 5.3637 11.0244C5.3637 11.0244 0.302838 33.0842 0.0703125 34.0808H7.93174L11.6453 16.062C11.7821 15.303 12.56 12.6876 15.9898 12.5936C16.3864 12.5834 16.9387 12.5834 17.5833 12.5834L18.0432 11.0603C16.4771 11.1218 12.6985 11.0603 12.6985 11.0603L12.8712 10.2569C13.9535 5.86883 17.1832 2.7543 22.5774 2.41584C24.9574 2.26712 27.4981 2.68935 27.4981 2.68935L28.2094 1.03294C28.2111 1.03123 25.8431 0.133789 21.5516 0.133789Z" fill="#606060"/>
</g>
<defs>
<linearGradient id="paint0_linear_774_68" x1="17.5975" y1="19.2419" x2="51.0325" y2="26.3319" gradientUnits="userSpaceOnUse">
<stop stop-color="#B0913A"/>
<stop offset="0.0748" stop-color="#AA8D3A"/>
<stop offset="0.1715" stop-color="#9A8139"/>
<stop offset="0.2337" stop-color="#8C7638"/>
<stop offset="0.3982" stop-color="#A68A39"/>
<stop offset="0.4975" stop-color="#B0913A"/>
<stop offset="0.5541" stop-color="#B49641"/>
<stop offset="0.6386" stop-color="#C0A456"/>
<stop offset="0.7403" stop-color="#D4BC77"/>
<stop offset="0.7487" stop-color="#D6BE7A"/>
<stop offset="0.7516" stop-color="#D5BD79"/>
<stop offset="0.8124" stop-color="#C5AA5D"/>
<stop offset="0.874" stop-color="#B99C4A"/>
<stop offset="0.9362" stop-color="#B2943E"/>
<stop offset="1" stop-color="#B0913A"/>
</linearGradient>
<clipPath id="clip0_774_68">
<rect width="125.496" height="40" fill="white"/>
</clipPath>
</defs>
</svg>
