<svg width="151" height="48" viewBox="0 0 151 48" fill="none" xmlns="http://www.w3.org/2000/svg">
<g id="forme-logo 2" clip-path="url(#clip0_774_327)">
<g id="Group">
<g id="Group_2">
<path id="Vector" d="M41.1702 6.84082C29.8469 6.84082 20.6758 16.0141 20.6758 27.3413C20.6758 38.6665 29.8469 47.8377 41.1702 47.8377C52.5017 47.8377 61.681 38.6665 61.681 27.3413C61.681 16.0141 52.5017 6.84082 41.1702 6.84082ZM41.1702 40.4777C33.9154 40.4777 28.0373 34.6008 28.0373 27.3413C28.0373 20.0777 33.9154 14.2029 41.1702 14.2029C48.4229 14.2029 54.3195 20.0777 54.3195 27.3413C54.3195 34.6029 48.4209 40.4777 41.1702 40.4777Z" fill="url(#paint0_linear_774_327)"/>
<path id="Vector_2" d="M47.8606 27.3436C47.8606 31.0359 44.8712 34.0266 41.17 34.0266C37.4051 34.0266 34.3727 30.9148 34.4958 27.122C34.6107 23.6082 37.4995 20.7405 41.0161 20.6625C44.7892 20.5743 47.8606 23.6 47.8606 27.3436Z" fill="white"/>
</g>
</g>
<path id="Vector_3" d="M75.6374 16.1762L76.2529 13.2695H68.2574L62.3711 41.0275H70.3666L73.7006 25.3557C74.234 22.4839 79.4576 15.4541 83.5261 15.4541C83.5897 15.4541 84.4904 15.4541 84.552 15.4541L85.0629 13.2982C79.0186 13.3003 76.019 15.8316 75.6374 16.1762Z" fill="white"/>
<path id="Vector_4" d="M143.69 12.7715C139.687 12.7715 136.624 13.8915 134.365 16.1294C132.106 18.3694 130.477 21.0238 129.478 24.0966C128.913 25.832 128.507 27.4833 128.263 29.0546C127.736 32.0392 127.697 34.993 128.682 37.2987C127.711 37.4915 126.655 37.6269 125.596 37.6269C121.294 37.6269 122.607 32.1581 122.849 31.0648C123.089 29.9735 123.357 28.8535 123.655 27.7048C124.135 25.8176 124.506 24.2176 124.765 22.9028C125.023 21.5899 125.153 20.3961 125.153 19.3212C125.153 17.2125 124.597 15.6392 123.487 14.6012C122.377 13.5653 120.877 13.0464 118.989 13.0464C115.879 13.0464 111.255 14.6197 109.219 17.7664C108.663 14.5828 106.757 12.991 103.499 12.991C100.871 12.991 96.5603 14.0453 94.6727 16.1561L95.2841 13.2699H87.2887L81.4023 41.0279H89.3978L93.3781 22.3858C93.8233 20.831 95.6924 18.0433 99.722 18.0433C100.832 18.0433 101.388 18.8576 101.388 20.4864C101.388 20.9684 101.333 21.4299 101.222 21.8751L97.1676 41.0279H105.163L109.143 22.3858C109.589 20.8679 111.101 18.0987 115.321 18.0987C116.655 18.0987 117.319 19.0423 117.319 20.9294C117.319 21.7069 117.19 22.7243 116.932 23.9838C116.673 25.2433 116.394 26.5192 116.099 27.8135C116.025 28.072 115.885 28.6648 115.682 29.5899C115.479 30.5151 115.284 31.4689 115.099 32.4494C114.913 33.4299 114.822 34.3099 114.822 35.0874C114.822 36.8638 115.35 38.3551 116.404 39.5571C117.459 40.7612 119.115 41.3623 121.374 41.3623C124.465 41.3623 127.58 40.3489 129.972 39.3048C131.919 41.391 135.438 42.3674 141.334 41.313C145.227 40.6176 146.868 39.3438 146.868 39.3438L146.133 37.5058C146.133 37.5058 145.943 37.6166 143.22 38.1992C136.677 39.6022 134.896 35.5838 136.306 29.8135C138.528 29.6658 140.778 29.0648 143.035 28.0084C145.292 26.954 147.1 25.5571 148.464 23.8176C149.826 22.0781 150.508 20.1725 150.508 18.0987C150.508 14.5479 148.372 12.7715 143.69 12.7715ZM144.283 22.3469C143.409 23.7356 142.26 24.872 140.834 25.7602C139.408 26.6484 138.103 27.112 136.698 27.1489C137.328 24.2258 138.089 21.5879 139.558 19.2371C141.027 16.8864 142.711 15.711 144.201 15.711C145.263 15.711 145.592 16.4699 145.592 17.9879C145.592 19.5079 145.155 20.9602 144.283 22.3469Z" fill="white"/>
<path id="Vector_5" d="M25.8635 0.160156C12.7039 0.160156 8.4343 5.72323 6.438 13.2289C6.438 13.2289 0.364968 39.7007 0.0859375 40.8966H9.51965L13.9759 19.274C14.1401 18.3632 15.0736 15.2248 19.1893 15.112C19.6653 15.0996 20.328 15.0996 21.1015 15.0996L21.6534 13.272C19.774 13.3458 15.2398 13.272 15.2398 13.272L15.447 12.3078C16.7457 7.04221 20.6214 3.30477 27.0945 2.89862C29.9505 2.72016 32.9993 3.22683 32.9993 3.22683L33.8528 1.23913C33.8548 1.23708 31.0132 0.160156 25.8635 0.160156Z" fill="white"/>
</g>
<defs>
<linearGradient id="paint0_linear_774_327" x1="21.1163" y1="23.0897" x2="61.2383" y2="31.5976" gradientUnits="userSpaceOnUse">
<stop stop-color="#B0913A"/>
<stop offset="0.0748" stop-color="#AA8D3A"/>
<stop offset="0.1715" stop-color="#9A8139"/>
<stop offset="0.2337" stop-color="#8C7638"/>
<stop offset="0.3982" stop-color="#A68A39"/>
<stop offset="0.4975" stop-color="#B0913A"/>
<stop offset="0.5541" stop-color="#B49641"/>
<stop offset="0.6386" stop-color="#C0A456"/>
<stop offset="0.7403" stop-color="#D4BC77"/>
<stop offset="0.7487" stop-color="#D6BE7A"/>
<stop offset="0.7516" stop-color="#D5BD79"/>
<stop offset="0.8124" stop-color="#C5AA5D"/>
<stop offset="0.874" stop-color="#B99C4A"/>
<stop offset="0.9362" stop-color="#B2943E"/>
<stop offset="1" stop-color="#B0913A"/>
</linearGradient>
<clipPath id="clip0_774_327">
<rect width="150.595" height="48" fill="white"/>
</clipPath>
</defs>
</svg>
