<svg width="126" height="40" fill="none" xmlns="http://www.w3.org/2000/svg"><g clip-path="url(#a)"><path d="M34.31 5.701c-9.437 0-17.08 7.645-17.08 17.084 0 9.437 7.643 17.08 17.08 17.08 9.442 0 17.091-7.643 17.091-17.08 0-9.44-7.649-17.084-17.092-17.084Zm0 28.03c-6.047 0-10.945-4.897-10.945-10.946 0-6.053 4.899-10.949 10.944-10.949 6.044 0 10.958 4.896 10.958 10.949 0 6.051-4.916 10.947-10.958 10.947Z" fill="url(#b)"/><path d="M39.883 22.787a5.568 5.568 0 0 1-5.576 5.569 5.565 5.565 0 0 1-5.562-5.754c.096-2.928 2.503-5.318 5.434-5.383a5.566 5.566 0 0 1 5.703 5.568Zm23.149-9.307.513-2.422h-6.663L51.977 34.19h6.663l2.778-13.06c.444-2.393 4.797-8.251 8.188-8.251h.855l.425-1.797c-5.036.002-7.536 2.111-7.854 2.398Zm56.71-2.837c-3.336 0-5.888.933-7.771 2.798-1.882 1.867-3.24 4.079-4.072 6.64-.47 1.446-.809 2.822-1.012 4.131-.44 2.487-.472 4.949.348 6.87-.808.16-1.689.274-2.571.274-3.585 0-2.491-4.558-2.289-5.469.2-.91.424-1.843.671-2.8a75.56 75.56 0 0 0 .925-4.001c.216-1.095.324-2.09.324-2.985 0-1.757-.464-3.068-1.389-3.933-.925-.864-2.175-1.296-3.748-1.296-2.591 0-6.445 1.311-8.141 3.933-.464-2.653-2.052-3.98-4.767-3.98-2.19 0-5.782.88-7.355 2.638l.51-2.405H72.74L67.836 34.19h6.663l3.317-15.535c.37-1.296 1.928-3.619 5.286-3.619.925 0 1.389.679 1.389 2.036 0 .402-.047.786-.139 1.157l-3.378 15.96h6.662l3.317-15.534c.371-1.265 1.632-3.573 5.148-3.573 1.112 0 1.666.786 1.666 2.36 0 .647-.108 1.495-.323 2.544-.216 1.05-.448 2.113-.695 3.192-.061.215-.177.71-.347 1.48a82.566 82.566 0 0 0-.485 2.383c-.156.817-.231 1.55-.231 2.198 0 1.48.44 2.723 1.318 3.725.879 1.004 2.259 1.505 4.141 1.505 2.577 0 5.172-.845 7.166-1.715 1.622 1.738 4.555 2.552 9.468 1.673 3.244-.579 4.612-1.64 4.612-1.64l-.613-1.532s-.159.092-2.427.578c-5.453 1.169-6.937-2.18-5.762-6.988 1.851-.123 3.727-.624 5.608-1.505 1.88-.878 3.387-2.043 4.524-3.492 1.135-1.45 1.703-3.038 1.703-4.766 0-2.959-1.78-4.44-5.682-4.44Zm.494 7.98a8.906 8.906 0 0 1-2.874 2.844c-1.188.74-2.275 1.126-3.447 1.157.525-2.436 1.16-4.634 2.384-6.593 1.224-1.96 2.628-2.939 3.869-2.939.886 0 1.159.633 1.159 1.898 0 1.266-.364 2.477-1.091 3.632ZM21.552.134C10.585.134 7.027 4.77 5.364 11.024c0 0-5.061 22.06-5.294 23.057h7.862l3.713-18.019c.137-.759.915-3.374 4.345-3.468.396-.01.949-.01 1.593-.01l.46-1.524c-1.566.062-5.345 0-5.345 0l.173-.803c1.082-4.388 4.312-7.503 9.706-7.841 2.38-.149 4.921.273 4.921.273l.711-1.656c.002-.002-2.366-.9-6.657-.9Z" fill="#606060"/></g><defs><linearGradient id="b" x1="17.598" y1="19.242" x2="51.032" y2="26.332" gradientUnits="userSpaceOnUse"><stop stop-color="#B0913A"/><stop offset=".075" stop-color="#AA8D3A"/><stop offset=".172" stop-color="#9A8139"/><stop offset=".234" stop-color="#8C7638"/><stop offset=".398" stop-color="#A68A39"/><stop offset=".497" stop-color="#B0913A"/><stop offset=".554" stop-color="#B49641"/><stop offset=".639" stop-color="#C0A456"/><stop offset=".74" stop-color="#D4BC77"/><stop offset=".749" stop-color="#D6BE7A"/><stop offset=".752" stop-color="#D5BD79"/><stop offset=".812" stop-color="#C5AA5D"/><stop offset=".874" stop-color="#B99C4A"/><stop offset=".936" stop-color="#B2943E"/><stop offset="1" stop-color="#B0913A"/></linearGradient><clipPath id="a"><path fill="#fff" d="M0 0h125.496v40H0z"/></clipPath></defs></svg>