<svg width="151" height="48" fill="none" xmlns="http://www.w3.org/2000/svg"><g clip-path="url(#a)"><path d="M41.17 6.84c-11.323 0-20.494 9.174-20.494 20.501 0 11.325 9.17 20.497 20.494 20.497 11.332 0 20.511-9.172 20.511-20.497 0-11.327-9.18-20.5-20.51-20.5Zm0 33.638c-7.255 0-13.133-5.877-13.133-13.137 0-7.263 5.878-13.138 13.133-13.138 7.253 0 13.15 5.875 13.15 13.138 0 7.262-5.9 13.137-13.15 13.137Z" fill="url(#b)"/><path d="M47.86 27.344a6.682 6.682 0 0 1-6.69 6.683 6.678 6.678 0 0 1-6.674-6.905c.115-3.514 3.003-6.381 6.52-6.46a6.679 6.679 0 0 1 6.845 6.682Zm27.777-11.168.616-2.906h-7.996l-5.886 27.758h7.996L73.7 25.356c.533-2.872 5.757-9.902 9.825-9.902h1.026l.51-2.156c-6.043.002-9.043 2.534-9.425 2.878Zm68.053-3.405c-4.003 0-7.066 1.12-9.325 3.358-2.259 2.24-3.888 4.895-4.887 7.968-.565 1.735-.971 3.386-1.215 4.958-.527 2.984-.566 5.938.419 8.244-.971.193-2.027.328-3.086.328-4.302 0-2.989-5.469-2.747-6.562.24-1.091.508-2.212.806-3.36.48-1.887.851-3.487 1.11-4.802.258-1.313.388-2.507.388-3.582 0-2.109-.556-3.682-1.666-4.72-1.11-1.036-2.61-1.555-4.498-1.555-3.11 0-7.734 1.574-9.77 4.72-.556-3.183-2.462-4.775-5.72-4.775-2.628 0-6.939 1.054-8.826 3.165l.611-2.886H87.29l-5.887 27.758h7.996l3.98-18.642c.445-1.555 2.314-4.343 6.344-4.343 1.11 0 1.666.815 1.666 2.443 0 .482-.055.944-.166 1.39l-4.054 19.152h7.995l3.98-18.642c.446-1.518 1.958-4.287 6.178-4.287 1.334 0 1.998.943 1.998 2.83 0 .778-.129 1.795-.387 3.055-.259 1.26-.538 2.535-.833 3.83-.074.258-.214.85-.417 1.776a98.957 98.957 0 0 0-.583 2.86c-.186.98-.277 1.86-.277 2.637 0 1.777.528 3.268 1.582 4.47 1.055 1.204 2.711 1.805 4.97 1.805 3.091 0 6.206-1.013 8.598-2.057 1.947 2.086 5.466 3.062 11.362 2.008 3.893-.695 5.534-1.97 5.534-1.97l-.735-1.837s-.19.11-2.913.693c-6.543 1.403-8.324-2.615-6.914-8.385 2.222-.148 4.472-.75 6.729-1.806 2.257-1.054 4.065-2.45 5.429-4.19 1.362-1.74 2.044-3.646 2.044-5.72 0-3.55-2.136-5.326-6.818-5.326Zm.593 9.576a10.688 10.688 0 0 1-3.449 3.413c-1.426.888-2.731 1.352-4.136 1.389.63-2.923 1.391-5.561 2.86-7.912 1.469-2.35 3.153-3.526 4.643-3.526 1.062 0 1.391.759 1.391 2.277 0 1.52-.437 2.972-1.309 4.359ZM25.863.16C12.703.16 8.434 5.723 6.438 13.23c0 0-6.073 26.472-6.352 27.668H9.52l4.456-21.623c.164-.91 1.098-4.05 5.213-4.162.476-.012 1.139-.012 1.913-.012l.551-1.828c-1.879.074-6.413 0-6.413 0l.207-.964c1.299-5.266 5.174-9.003 11.648-9.41 2.856-.178 5.904.329 5.904.329l.854-1.988c.002-.002-2.84-1.079-7.99-1.079Z" fill="#fff"/></g><defs><linearGradient id="b" x1="21.116" y1="23.09" x2="61.238" y2="31.598" gradientUnits="userSpaceOnUse"><stop stop-color="#B0913A"/><stop offset=".075" stop-color="#AA8D3A"/><stop offset=".172" stop-color="#9A8139"/><stop offset=".234" stop-color="#8C7638"/><stop offset=".398" stop-color="#A68A39"/><stop offset=".497" stop-color="#B0913A"/><stop offset=".554" stop-color="#B49641"/><stop offset=".639" stop-color="#C0A456"/><stop offset=".74" stop-color="#D4BC77"/><stop offset=".749" stop-color="#D6BE7A"/><stop offset=".752" stop-color="#D5BD79"/><stop offset=".812" stop-color="#C5AA5D"/><stop offset=".874" stop-color="#B99C4A"/><stop offset=".936" stop-color="#B2943E"/><stop offset="1" stop-color="#B0913A"/></linearGradient><clipPath id="a"><path fill="#fff" d="M0 0h150.595v48H0z"/></clipPath></defs></svg>